<mxfile host="app.diagrams.net" modified="2021-06-08T11:27:15.667Z" agent="5.0 (Windows NT 10.0; Win64; x64) AppleWebKit/537.36 (KHTML, like Gecko) Chrome/91.0.4472.77 Safari/537.36" etag="fUHd45-hNLGt_K7Ds-qf" version="14.7.6" type="github">
  <diagram id="R2lEEEUBdFMjLlhIrx00" name="Page-1">
    <mxGraphModel dx="868" dy="1592" grid="0" gridSize="10" guides="1" tooltips="1" connect="1" arrows="1" fold="1" page="1" pageScale="1" pageWidth="1700" pageHeight="1100" math="0" shadow="0" extFonts="Permanent Marker^https://fonts.googleapis.com/css?family=Permanent+Marker">
      <root>
        <mxCell id="0" />
        <mxCell id="1" parent="0" />
        <mxCell id="E78Ck8Y9UJgd9hsz8yq5-24" style="edgeStyle=orthogonalEdgeStyle;rounded=0;orthogonalLoop=1;jettySize=auto;html=1;startArrow=ERone;startFill=0;endArrow=ERmany;endFill=0;" parent="1" source="C-vyLk0tnHw3VtMMgP7b-2" target="FQMhkjAlK0ivQc2ch7R_-152" edge="1">
          <mxGeometry relative="1" as="geometry" />
        </mxCell>
        <mxCell id="C-vyLk0tnHw3VtMMgP7b-2" value="Patients" style="shape=table;startSize=30;container=1;collapsible=1;childLayout=tableLayout;fixedRows=1;rowLines=0;fontStyle=1;align=center;resizeLast=1;fillColor=#d5e8d4;strokeColor=#82b366;" parent="1" vertex="1">
          <mxGeometry x="77" y="252" width="250" height="166" as="geometry" />
        </mxCell>
        <mxCell id="C-vyLk0tnHw3VtMMgP7b-3" value="" style="shape=partialRectangle;collapsible=0;dropTarget=0;pointerEvents=0;fillColor=none;points=[[0,0.5],[1,0.5]];portConstraint=eastwest;top=0;left=0;right=0;bottom=1;" parent="C-vyLk0tnHw3VtMMgP7b-2" vertex="1">
          <mxGeometry y="30" width="250" height="30" as="geometry" />
        </mxCell>
        <mxCell id="C-vyLk0tnHw3VtMMgP7b-4" value="PK" style="shape=partialRectangle;overflow=hidden;connectable=0;fillColor=#dae8fc;top=0;left=0;bottom=0;right=0;fontStyle=1;strokeColor=#6c8ebf;" parent="C-vyLk0tnHw3VtMMgP7b-3" vertex="1">
          <mxGeometry width="30" height="30" as="geometry" />
        </mxCell>
        <mxCell id="C-vyLk0tnHw3VtMMgP7b-5" value="id_patient" style="shape=partialRectangle;overflow=hidden;connectable=0;fillColor=#dae8fc;top=0;left=0;bottom=0;right=0;align=left;spacingLeft=6;fontStyle=5;strokeColor=#6c8ebf;" parent="C-vyLk0tnHw3VtMMgP7b-3" vertex="1">
          <mxGeometry x="30" width="220" height="30" as="geometry" />
        </mxCell>
        <mxCell id="C-vyLk0tnHw3VtMMgP7b-6" value="" style="shape=partialRectangle;collapsible=0;dropTarget=0;pointerEvents=0;fillColor=none;points=[[0,0.5],[1,0.5]];portConstraint=eastwest;top=0;left=0;right=0;bottom=0;" parent="C-vyLk0tnHw3VtMMgP7b-2" vertex="1">
          <mxGeometry y="60" width="250" height="30" as="geometry" />
        </mxCell>
        <mxCell id="C-vyLk0tnHw3VtMMgP7b-7" value="FK1" style="shape=partialRectangle;overflow=hidden;connectable=0;fillColor=#f5f5f5;top=0;left=0;bottom=0;right=0;strokeColor=#666666;fontColor=#333333;" parent="C-vyLk0tnHw3VtMMgP7b-6" vertex="1">
          <mxGeometry width="30" height="30" as="geometry" />
        </mxCell>
        <mxCell id="C-vyLk0tnHw3VtMMgP7b-8" value="id_professional" style="shape=partialRectangle;overflow=hidden;connectable=0;fillColor=#f5f5f5;top=0;left=0;bottom=0;right=0;align=left;spacingLeft=6;strokeColor=#666666;fontColor=#333333;" parent="C-vyLk0tnHw3VtMMgP7b-6" vertex="1">
          <mxGeometry x="30" width="220" height="30" as="geometry" />
        </mxCell>
        <mxCell id="C-vyLk0tnHw3VtMMgP7b-9" value="" style="shape=partialRectangle;collapsible=0;dropTarget=0;pointerEvents=0;fillColor=none;points=[[0,0.5],[1,0.5]];portConstraint=eastwest;top=0;left=0;right=0;bottom=0;" parent="C-vyLk0tnHw3VtMMgP7b-2" vertex="1">
          <mxGeometry y="90" width="250" height="30" as="geometry" />
        </mxCell>
        <mxCell id="C-vyLk0tnHw3VtMMgP7b-10" value="" style="shape=partialRectangle;overflow=hidden;connectable=0;fillColor=none;top=0;left=0;bottom=0;right=0;" parent="C-vyLk0tnHw3VtMMgP7b-9" vertex="1">
          <mxGeometry width="30" height="30" as="geometry" />
        </mxCell>
        <mxCell id="C-vyLk0tnHw3VtMMgP7b-11" value="patient_name" style="shape=partialRectangle;overflow=hidden;connectable=0;fillColor=none;top=0;left=0;bottom=0;right=0;align=left;spacingLeft=6;" parent="C-vyLk0tnHw3VtMMgP7b-9" vertex="1">
          <mxGeometry x="30" width="220" height="30" as="geometry" />
        </mxCell>
        <mxCell id="E78Ck8Y9UJgd9hsz8yq5-17" style="edgeStyle=orthogonalEdgeStyle;rounded=0;orthogonalLoop=1;jettySize=auto;html=1;startArrow=ERone;startFill=0;endArrow=ERmany;endFill=0;" parent="1" source="FQMhkjAlK0ivQc2ch7R_-11" target="E78Ck8Y9UJgd9hsz8yq5-8" edge="1">
          <mxGeometry relative="1" as="geometry" />
        </mxCell>
        <mxCell id="FQMhkjAlK0ivQc2ch7R_-11" value="Vital Signs" style="shape=table;startSize=30;container=1;collapsible=1;childLayout=tableLayout;fixedRows=1;rowLines=0;fontStyle=1;align=center;resizeLast=1;fillColor=#d5e8d4;strokeColor=#82b366;" parent="1" vertex="1">
          <mxGeometry x="35" y="677" width="250" height="121" as="geometry" />
        </mxCell>
        <mxCell id="FQMhkjAlK0ivQc2ch7R_-12" value="" style="shape=partialRectangle;collapsible=0;dropTarget=0;pointerEvents=0;fillColor=none;points=[[0,0.5],[1,0.5]];portConstraint=eastwest;top=0;left=0;right=0;bottom=1;" parent="FQMhkjAlK0ivQc2ch7R_-11" vertex="1">
          <mxGeometry y="30" width="250" height="30" as="geometry" />
        </mxCell>
        <mxCell id="FQMhkjAlK0ivQc2ch7R_-13" value="PK" style="shape=partialRectangle;overflow=hidden;connectable=0;fillColor=#dae8fc;top=0;left=0;bottom=0;right=0;fontStyle=1;strokeColor=#6c8ebf;" parent="FQMhkjAlK0ivQc2ch7R_-12" vertex="1">
          <mxGeometry width="30" height="30" as="geometry" />
        </mxCell>
        <mxCell id="FQMhkjAlK0ivQc2ch7R_-14" value="id_signs" style="shape=partialRectangle;overflow=hidden;connectable=0;fillColor=#dae8fc;top=0;left=0;bottom=0;right=0;align=left;spacingLeft=6;fontStyle=5;strokeColor=#6c8ebf;" parent="FQMhkjAlK0ivQc2ch7R_-12" vertex="1">
          <mxGeometry x="30" width="220" height="30" as="geometry" />
        </mxCell>
        <mxCell id="FQMhkjAlK0ivQc2ch7R_-15" value="" style="shape=partialRectangle;collapsible=0;dropTarget=0;pointerEvents=0;fillColor=none;points=[[0,0.5],[1,0.5]];portConstraint=eastwest;top=0;left=0;right=0;bottom=0;" parent="FQMhkjAlK0ivQc2ch7R_-11" vertex="1">
          <mxGeometry y="60" width="250" height="30" as="geometry" />
        </mxCell>
        <mxCell id="FQMhkjAlK0ivQc2ch7R_-16" value="FK1" style="shape=partialRectangle;overflow=hidden;connectable=0;fillColor=#f5f5f5;top=0;left=0;bottom=0;right=0;strokeColor=#666666;fontColor=#333333;" parent="FQMhkjAlK0ivQc2ch7R_-15" vertex="1">
          <mxGeometry width="30" height="30" as="geometry" />
        </mxCell>
        <mxCell id="FQMhkjAlK0ivQc2ch7R_-17" value="id_patient" style="shape=partialRectangle;overflow=hidden;connectable=0;fillColor=#f5f5f5;top=0;left=0;bottom=0;right=0;align=left;spacingLeft=6;strokeColor=#666666;fontColor=#333333;" parent="FQMhkjAlK0ivQc2ch7R_-15" vertex="1">
          <mxGeometry x="30" width="220" height="30" as="geometry" />
        </mxCell>
        <mxCell id="FQMhkjAlK0ivQc2ch7R_-18" value="" style="shape=partialRectangle;collapsible=0;dropTarget=0;pointerEvents=0;fillColor=none;points=[[0,0.5],[1,0.5]];portConstraint=eastwest;top=0;left=0;right=0;bottom=0;" parent="FQMhkjAlK0ivQc2ch7R_-11" vertex="1">
          <mxGeometry y="90" width="250" height="30" as="geometry" />
        </mxCell>
        <mxCell id="FQMhkjAlK0ivQc2ch7R_-19" value="" style="shape=partialRectangle;overflow=hidden;connectable=0;fillColor=none;top=0;left=0;bottom=0;right=0;" parent="FQMhkjAlK0ivQc2ch7R_-18" vertex="1">
          <mxGeometry width="30" height="30" as="geometry" />
        </mxCell>
        <mxCell id="FQMhkjAlK0ivQc2ch7R_-20" value="vital_sign" style="shape=partialRectangle;overflow=hidden;connectable=0;fillColor=none;top=0;left=0;bottom=0;right=0;align=left;spacingLeft=6;" parent="FQMhkjAlK0ivQc2ch7R_-18" vertex="1">
          <mxGeometry x="30" width="220" height="30" as="geometry" />
        </mxCell>
        <mxCell id="FQMhkjAlK0ivQc2ch7R_-167" style="edgeStyle=orthogonalEdgeStyle;rounded=0;orthogonalLoop=1;jettySize=auto;html=1;entryX=0.5;entryY=0;entryDx=0;entryDy=0;startArrow=ERone;startFill=0;endArrow=ERmany;endFill=0;" parent="1" source="FQMhkjAlK0ivQc2ch7R_-21" target="C-vyLk0tnHw3VtMMgP7b-2" edge="1">
          <mxGeometry relative="1" as="geometry" />
        </mxCell>
        <mxCell id="E78Ck8Y9UJgd9hsz8yq5-21" style="edgeStyle=orthogonalEdgeStyle;rounded=0;orthogonalLoop=1;jettySize=auto;html=1;exitX=0.75;exitY=1;exitDx=0;exitDy=0;startArrow=ERone;startFill=0;endArrow=ERmany;endFill=0;" parent="1" source="FQMhkjAlK0ivQc2ch7R_-21" target="FQMhkjAlK0ivQc2ch7R_-141" edge="1">
          <mxGeometry relative="1" as="geometry" />
        </mxCell>
        <mxCell id="E78Ck8Y9UJgd9hsz8yq5-30" style="edgeStyle=orthogonalEdgeStyle;rounded=0;orthogonalLoop=1;jettySize=auto;html=1;entryX=1;entryY=0.5;entryDx=0;entryDy=0;startArrow=ERone;startFill=0;endArrow=ERmany;endFill=0;" parent="1" source="FQMhkjAlK0ivQc2ch7R_-21" target="FQMhkjAlK0ivQc2ch7R_-45" edge="1">
          <mxGeometry relative="1" as="geometry">
            <Array as="points">
              <mxPoint x="202" y="12" />
              <mxPoint x="843" y="12" />
              <mxPoint x="843" y="752" />
            </Array>
          </mxGeometry>
        </mxCell>
        <mxCell id="FQMhkjAlK0ivQc2ch7R_-21" value="Healt Professionals" style="shape=table;startSize=30;container=1;collapsible=1;childLayout=tableLayout;fixedRows=1;rowLines=0;fontStyle=1;align=center;resizeLast=1;fillColor=#d5e8d4;strokeColor=#82b366;" parent="1" vertex="1">
          <mxGeometry x="77" y="32" width="250" height="147" as="geometry" />
        </mxCell>
        <mxCell id="FQMhkjAlK0ivQc2ch7R_-22" value="" style="shape=partialRectangle;collapsible=0;dropTarget=0;pointerEvents=0;fillColor=none;points=[[0,0.5],[1,0.5]];portConstraint=eastwest;top=0;left=0;right=0;bottom=1;" parent="FQMhkjAlK0ivQc2ch7R_-21" vertex="1">
          <mxGeometry y="30" width="250" height="30" as="geometry" />
        </mxCell>
        <mxCell id="FQMhkjAlK0ivQc2ch7R_-23" value="PK" style="shape=partialRectangle;overflow=hidden;connectable=0;fillColor=#dae8fc;top=0;left=0;bottom=0;right=0;fontStyle=1;strokeColor=#6c8ebf;" parent="FQMhkjAlK0ivQc2ch7R_-22" vertex="1">
          <mxGeometry width="30" height="30" as="geometry" />
        </mxCell>
        <mxCell id="FQMhkjAlK0ivQc2ch7R_-24" value="id_professional" style="shape=partialRectangle;overflow=hidden;connectable=0;fillColor=#dae8fc;top=0;left=0;bottom=0;right=0;align=left;spacingLeft=6;fontStyle=5;strokeColor=#6c8ebf;" parent="FQMhkjAlK0ivQc2ch7R_-22" vertex="1">
          <mxGeometry x="30" width="220" height="30" as="geometry" />
        </mxCell>
        <mxCell id="FQMhkjAlK0ivQc2ch7R_-25" value="" style="shape=partialRectangle;collapsible=0;dropTarget=0;pointerEvents=0;fillColor=none;points=[[0,0.5],[1,0.5]];portConstraint=eastwest;top=0;left=0;right=0;bottom=0;" parent="FQMhkjAlK0ivQc2ch7R_-21" vertex="1">
          <mxGeometry y="60" width="250" height="30" as="geometry" />
        </mxCell>
        <mxCell id="FQMhkjAlK0ivQc2ch7R_-26" value="" style="shape=partialRectangle;overflow=hidden;connectable=0;fillColor=none;top=0;left=0;bottom=0;right=0;" parent="FQMhkjAlK0ivQc2ch7R_-25" vertex="1">
          <mxGeometry width="30" height="30" as="geometry" />
        </mxCell>
        <mxCell id="FQMhkjAlK0ivQc2ch7R_-27" value="professional_name" style="shape=partialRectangle;overflow=hidden;connectable=0;fillColor=none;top=0;left=0;bottom=0;right=0;align=left;spacingLeft=6;" parent="FQMhkjAlK0ivQc2ch7R_-25" vertex="1">
          <mxGeometry x="30" width="220" height="30" as="geometry" />
        </mxCell>
        <mxCell id="FQMhkjAlK0ivQc2ch7R_-28" value="" style="shape=partialRectangle;collapsible=0;dropTarget=0;pointerEvents=0;fillColor=none;points=[[0,0.5],[1,0.5]];portConstraint=eastwest;top=0;left=0;right=0;bottom=0;" parent="FQMhkjAlK0ivQc2ch7R_-21" vertex="1">
          <mxGeometry y="90" width="250" height="30" as="geometry" />
        </mxCell>
        <mxCell id="FQMhkjAlK0ivQc2ch7R_-29" value="" style="shape=partialRectangle;overflow=hidden;connectable=0;fillColor=none;top=0;left=0;bottom=0;right=0;" parent="FQMhkjAlK0ivQc2ch7R_-28" vertex="1">
          <mxGeometry width="30" height="30" as="geometry" />
        </mxCell>
        <mxCell id="FQMhkjAlK0ivQc2ch7R_-30" value="professional_email" style="shape=partialRectangle;overflow=hidden;connectable=0;fillColor=none;top=0;left=0;bottom=0;right=0;align=left;spacingLeft=6;" parent="FQMhkjAlK0ivQc2ch7R_-28" vertex="1">
          <mxGeometry x="30" width="220" height="30" as="geometry" />
        </mxCell>
        <mxCell id="E78Ck8Y9UJgd9hsz8yq5-15" style="edgeStyle=orthogonalEdgeStyle;rounded=0;orthogonalLoop=1;jettySize=auto;html=1;entryX=1;entryY=0.5;entryDx=0;entryDy=0;startArrow=ERmany;startFill=0;endArrow=ERmany;endFill=0;" parent="1" source="FQMhkjAlK0ivQc2ch7R_-41" target="E78Ck8Y9UJgd9hsz8yq5-5" edge="1">
          <mxGeometry relative="1" as="geometry" />
        </mxCell>
        <mxCell id="sGMbjx1k_9ghgo7PnfZ6-3" style="edgeStyle=orthogonalEdgeStyle;rounded=0;orthogonalLoop=1;jettySize=auto;html=1;exitX=0.75;exitY=0;exitDx=0;exitDy=0;startArrow=ERmany;startFill=0;endArrow=ERone;endFill=0;" edge="1" parent="1" source="FQMhkjAlK0ivQc2ch7R_-41">
          <mxGeometry relative="1" as="geometry">
            <mxPoint x="761" y="418" as="targetPoint" />
          </mxGeometry>
        </mxCell>
        <mxCell id="FQMhkjAlK0ivQc2ch7R_-41" value="Administered Medicines" style="shape=table;startSize=30;container=1;collapsible=1;childLayout=tableLayout;fixedRows=1;rowLines=0;fontStyle=1;align=center;resizeLast=1;fillColor=#d5e8d4;strokeColor=#82b366;" parent="1" vertex="1">
          <mxGeometry x="573" y="677" width="250" height="172" as="geometry" />
        </mxCell>
        <mxCell id="FQMhkjAlK0ivQc2ch7R_-42" value="" style="shape=partialRectangle;collapsible=0;dropTarget=0;pointerEvents=0;fillColor=none;points=[[0,0.5],[1,0.5]];portConstraint=eastwest;top=0;left=0;right=0;bottom=1;" parent="FQMhkjAlK0ivQc2ch7R_-41" vertex="1">
          <mxGeometry y="30" width="250" height="30" as="geometry" />
        </mxCell>
        <mxCell id="FQMhkjAlK0ivQc2ch7R_-43" value="PK" style="shape=partialRectangle;overflow=hidden;connectable=0;fillColor=#dae8fc;top=0;left=0;bottom=0;right=0;fontStyle=1;strokeColor=#6c8ebf;" parent="FQMhkjAlK0ivQc2ch7R_-42" vertex="1">
          <mxGeometry width="30" height="30" as="geometry" />
        </mxCell>
        <mxCell id="FQMhkjAlK0ivQc2ch7R_-44" value="id_medicine" style="shape=partialRectangle;overflow=hidden;connectable=0;fillColor=#dae8fc;top=0;left=0;bottom=0;right=0;align=left;spacingLeft=6;fontStyle=5;strokeColor=#6c8ebf;" parent="FQMhkjAlK0ivQc2ch7R_-42" vertex="1">
          <mxGeometry x="30" width="220" height="30" as="geometry" />
        </mxCell>
        <mxCell id="FQMhkjAlK0ivQc2ch7R_-45" value="" style="shape=partialRectangle;collapsible=0;dropTarget=0;pointerEvents=0;fillColor=none;points=[[0,0.5],[1,0.5]];portConstraint=eastwest;top=0;left=0;right=0;bottom=0;" parent="FQMhkjAlK0ivQc2ch7R_-41" vertex="1">
          <mxGeometry y="60" width="250" height="30" as="geometry" />
        </mxCell>
        <mxCell id="FQMhkjAlK0ivQc2ch7R_-46" value="FK1" style="shape=partialRectangle;overflow=hidden;connectable=0;fillColor=#f5f5f5;top=0;left=0;bottom=0;right=0;strokeColor=#666666;fontColor=#333333;" parent="FQMhkjAlK0ivQc2ch7R_-45" vertex="1">
          <mxGeometry width="30" height="30" as="geometry" />
        </mxCell>
        <mxCell id="FQMhkjAlK0ivQc2ch7R_-47" value="id_professional" style="shape=partialRectangle;overflow=hidden;connectable=0;fillColor=#f5f5f5;top=0;left=0;bottom=0;right=0;align=left;spacingLeft=6;strokeColor=#666666;fontColor=#333333;" parent="FQMhkjAlK0ivQc2ch7R_-45" vertex="1">
          <mxGeometry x="30" width="220" height="30" as="geometry" />
        </mxCell>
        <mxCell id="FQMhkjAlK0ivQc2ch7R_-48" value="" style="shape=partialRectangle;collapsible=0;dropTarget=0;pointerEvents=0;fillColor=none;points=[[0,0.5],[1,0.5]];portConstraint=eastwest;top=0;left=0;right=0;bottom=0;" parent="FQMhkjAlK0ivQc2ch7R_-41" vertex="1">
          <mxGeometry y="90" width="250" height="30" as="geometry" />
        </mxCell>
        <mxCell id="FQMhkjAlK0ivQc2ch7R_-49" value="FK2" style="shape=partialRectangle;overflow=hidden;connectable=0;fillColor=#fff2cc;top=0;left=0;bottom=0;right=0;strokeColor=#d6b656;" parent="FQMhkjAlK0ivQc2ch7R_-48" vertex="1">
          <mxGeometry width="30" height="30" as="geometry" />
        </mxCell>
        <mxCell id="FQMhkjAlK0ivQc2ch7R_-50" value="id_patient" style="shape=partialRectangle;overflow=hidden;connectable=0;fillColor=#fff2cc;top=0;left=0;bottom=0;right=0;align=left;spacingLeft=6;strokeColor=#d6b656;" parent="FQMhkjAlK0ivQc2ch7R_-48" vertex="1">
          <mxGeometry x="30" width="220" height="30" as="geometry" />
        </mxCell>
        <mxCell id="FQMhkjAlK0ivQc2ch7R_-64" value="auth_user" style="shape=table;startSize=30;container=1;collapsible=1;childLayout=tableLayout;fixedRows=1;rowLines=0;fontStyle=1;align=center;resizeLast=1;fillColor=#d5e8d4;strokeColor=#82b366;" parent="1" vertex="1">
          <mxGeometry x="523" y="22" width="250" height="150" as="geometry" />
        </mxCell>
        <mxCell id="FQMhkjAlK0ivQc2ch7R_-65" value="" style="shape=partialRectangle;collapsible=0;dropTarget=0;pointerEvents=0;fillColor=none;points=[[0,0.5],[1,0.5]];portConstraint=eastwest;top=0;left=0;right=0;bottom=1;" parent="FQMhkjAlK0ivQc2ch7R_-64" vertex="1">
          <mxGeometry y="30" width="250" height="30" as="geometry" />
        </mxCell>
        <mxCell id="FQMhkjAlK0ivQc2ch7R_-66" value="PK" style="shape=partialRectangle;overflow=hidden;connectable=0;fillColor=#dae8fc;top=0;left=0;bottom=0;right=0;fontStyle=1;strokeColor=#6c8ebf;" parent="FQMhkjAlK0ivQc2ch7R_-65" vertex="1">
          <mxGeometry width="30" height="30" as="geometry" />
        </mxCell>
        <mxCell id="FQMhkjAlK0ivQc2ch7R_-67" value="id_authentication" style="shape=partialRectangle;overflow=hidden;connectable=0;fillColor=#dae8fc;top=0;left=0;bottom=0;right=0;align=left;spacingLeft=6;fontStyle=5;strokeColor=#6c8ebf;" parent="FQMhkjAlK0ivQc2ch7R_-65" vertex="1">
          <mxGeometry x="30" width="220" height="30" as="geometry" />
        </mxCell>
        <mxCell id="FQMhkjAlK0ivQc2ch7R_-68" value="" style="shape=partialRectangle;collapsible=0;dropTarget=0;pointerEvents=0;fillColor=none;points=[[0,0.5],[1,0.5]];portConstraint=eastwest;top=0;left=0;right=0;bottom=0;" parent="FQMhkjAlK0ivQc2ch7R_-64" vertex="1">
          <mxGeometry y="60" width="250" height="30" as="geometry" />
        </mxCell>
        <mxCell id="FQMhkjAlK0ivQc2ch7R_-69" value="" style="shape=partialRectangle;overflow=hidden;connectable=0;fillColor=none;top=0;left=0;bottom=0;right=0;" parent="FQMhkjAlK0ivQc2ch7R_-68" vertex="1">
          <mxGeometry width="30" height="30" as="geometry" />
        </mxCell>
        <mxCell id="FQMhkjAlK0ivQc2ch7R_-70" value="id_professional" style="shape=partialRectangle;overflow=hidden;connectable=0;fillColor=#f5f5f5;top=0;left=0;bottom=0;right=0;align=left;spacingLeft=6;strokeColor=#666666;fontColor=#333333;" parent="FQMhkjAlK0ivQc2ch7R_-68" vertex="1">
          <mxGeometry x="30" width="220" height="30" as="geometry" />
        </mxCell>
        <mxCell id="FQMhkjAlK0ivQc2ch7R_-71" value="" style="shape=partialRectangle;collapsible=0;dropTarget=0;pointerEvents=0;fillColor=none;points=[[0,0.5],[1,0.5]];portConstraint=eastwest;top=0;left=0;right=0;bottom=0;" parent="FQMhkjAlK0ivQc2ch7R_-64" vertex="1">
          <mxGeometry y="90" width="250" height="30" as="geometry" />
        </mxCell>
        <mxCell id="FQMhkjAlK0ivQc2ch7R_-72" value="FK2" style="shape=partialRectangle;overflow=hidden;connectable=0;fillColor=#fff2cc;top=0;left=0;bottom=0;right=0;strokeColor=#d6b656;" parent="FQMhkjAlK0ivQc2ch7R_-71" vertex="1">
          <mxGeometry width="30" height="30" as="geometry" />
        </mxCell>
        <mxCell id="FQMhkjAlK0ivQc2ch7R_-73" value="professional_email" style="shape=partialRectangle;overflow=hidden;connectable=0;fillColor=#fff2cc;top=0;left=0;bottom=0;right=0;align=left;spacingLeft=6;strokeColor=#d6b656;" parent="FQMhkjAlK0ivQc2ch7R_-71" vertex="1">
          <mxGeometry x="30" width="220" height="30" as="geometry" />
        </mxCell>
        <mxCell id="FQMhkjAlK0ivQc2ch7R_-75" value="password" style="shape=partialRectangle;overflow=hidden;connectable=0;fillColor=none;top=0;left=0;bottom=0;right=0;align=left;spacingLeft=6;" parent="1" vertex="1">
          <mxGeometry x="553" y="142" width="220" height="30" as="geometry" />
        </mxCell>
        <mxCell id="FQMhkjAlK0ivQc2ch7R_-76" value="patient_email" style="shape=partialRectangle;overflow=hidden;connectable=0;fillColor=none;top=0;left=0;bottom=0;right=0;align=left;spacingLeft=6;" parent="1" vertex="1">
          <mxGeometry x="107" y="372" width="220" height="18" as="geometry" />
        </mxCell>
        <mxCell id="FQMhkjAlK0ivQc2ch7R_-84" value="FK1" style="shape=partialRectangle;overflow=hidden;connectable=0;fillColor=#f5f5f5;top=0;left=0;bottom=0;right=0;strokeColor=#666666;fontColor=#333333;" parent="1" vertex="1">
          <mxGeometry x="523" y="82" width="30" height="30" as="geometry" />
        </mxCell>
        <mxCell id="FQMhkjAlK0ivQc2ch7R_-85" value="medicine_name" style="shape=partialRectangle;overflow=hidden;connectable=0;fillColor=none;top=0;left=0;bottom=0;right=0;align=left;spacingLeft=6;" parent="1" vertex="1">
          <mxGeometry x="603" y="795" width="220" height="28" as="geometry" />
        </mxCell>
        <mxCell id="FQMhkjAlK0ivQc2ch7R_-89" value="&#39;" style="edgeStyle=orthogonalEdgeStyle;rounded=0;orthogonalLoop=1;jettySize=auto;html=1;endArrow=ERmany;endFill=0;startArrow=ERone;startFill=0;exitX=1;exitY=0.5;exitDx=0;exitDy=0;" parent="1" source="FQMhkjAlK0ivQc2ch7R_-22" edge="1">
          <mxGeometry x="0.0968" y="-50" relative="1" as="geometry">
            <mxPoint x="524" y="97" as="targetPoint" />
            <Array as="points">
              <mxPoint x="426" y="77" />
              <mxPoint x="426" y="97" />
            </Array>
            <mxPoint x="-11" y="-1" as="offset" />
          </mxGeometry>
        </mxCell>
        <mxCell id="FQMhkjAlK0ivQc2ch7R_-90" value="1 : n" style="text;html=1;align=center;verticalAlign=middle;resizable=0;points=[];autosize=1;strokeColor=none;" parent="1" vertex="1">
          <mxGeometry x="405" y="47" width="40" height="20" as="geometry" />
        </mxCell>
        <mxCell id="FQMhkjAlK0ivQc2ch7R_-172" style="edgeStyle=orthogonalEdgeStyle;rounded=0;orthogonalLoop=1;jettySize=auto;html=1;startArrow=ERone;startFill=0;endArrow=ERmany;endFill=0;" parent="1" source="FQMhkjAlK0ivQc2ch7R_-141" target="FQMhkjAlK0ivQc2ch7R_-156" edge="1">
          <mxGeometry relative="1" as="geometry" />
        </mxCell>
        <mxCell id="FQMhkjAlK0ivQc2ch7R_-141" value="Anamnesis" style="shape=table;startSize=30;container=1;collapsible=1;childLayout=tableLayout;fixedRows=1;rowLines=0;fontStyle=1;align=center;resizeLast=1;fillColor=#d5e8d4;strokeColor=#82b366;" parent="1" vertex="1">
          <mxGeometry x="520" y="246" width="250" height="171" as="geometry" />
        </mxCell>
        <mxCell id="FQMhkjAlK0ivQc2ch7R_-142" value="" style="shape=partialRectangle;collapsible=0;dropTarget=0;pointerEvents=0;fillColor=none;points=[[0,0.5],[1,0.5]];portConstraint=eastwest;top=0;left=0;right=0;bottom=1;" parent="FQMhkjAlK0ivQc2ch7R_-141" vertex="1">
          <mxGeometry y="30" width="250" height="30" as="geometry" />
        </mxCell>
        <mxCell id="FQMhkjAlK0ivQc2ch7R_-143" value="PK" style="shape=partialRectangle;overflow=hidden;connectable=0;fillColor=#dae8fc;top=0;left=0;bottom=0;right=0;fontStyle=1;strokeColor=#6c8ebf;" parent="FQMhkjAlK0ivQc2ch7R_-142" vertex="1">
          <mxGeometry width="30" height="30" as="geometry" />
        </mxCell>
        <mxCell id="FQMhkjAlK0ivQc2ch7R_-144" value="id_anamnesis" style="shape=partialRectangle;overflow=hidden;connectable=0;fillColor=#dae8fc;top=0;left=0;bottom=0;right=0;align=left;spacingLeft=6;fontStyle=5;strokeColor=#6c8ebf;" parent="FQMhkjAlK0ivQc2ch7R_-142" vertex="1">
          <mxGeometry x="30" width="220" height="30" as="geometry" />
        </mxCell>
        <mxCell id="FQMhkjAlK0ivQc2ch7R_-145" value="" style="shape=partialRectangle;collapsible=0;dropTarget=0;pointerEvents=0;fillColor=none;points=[[0,0.5],[1,0.5]];portConstraint=eastwest;top=0;left=0;right=0;bottom=0;" parent="FQMhkjAlK0ivQc2ch7R_-141" vertex="1">
          <mxGeometry y="60" width="250" height="30" as="geometry" />
        </mxCell>
        <mxCell id="FQMhkjAlK0ivQc2ch7R_-146" value="FK1" style="shape=partialRectangle;overflow=hidden;connectable=0;fillColor=#f5f5f5;top=0;left=0;bottom=0;right=0;strokeColor=#666666;fontColor=#333333;" parent="FQMhkjAlK0ivQc2ch7R_-145" vertex="1">
          <mxGeometry width="30" height="30" as="geometry" />
        </mxCell>
        <mxCell id="FQMhkjAlK0ivQc2ch7R_-147" value="id_professional" style="shape=partialRectangle;overflow=hidden;connectable=0;fillColor=#f5f5f5;top=0;left=0;bottom=0;right=0;align=left;spacingLeft=6;strokeColor=#666666;fontColor=#333333;" parent="FQMhkjAlK0ivQc2ch7R_-145" vertex="1">
          <mxGeometry x="30" width="220" height="30" as="geometry" />
        </mxCell>
        <mxCell id="FQMhkjAlK0ivQc2ch7R_-148" value="" style="shape=partialRectangle;collapsible=0;dropTarget=0;pointerEvents=0;fillColor=none;points=[[0,0.5],[1,0.5]];portConstraint=eastwest;top=0;left=0;right=0;bottom=0;" parent="FQMhkjAlK0ivQc2ch7R_-141" vertex="1">
          <mxGeometry y="90" width="250" height="30" as="geometry" />
        </mxCell>
        <mxCell id="FQMhkjAlK0ivQc2ch7R_-149" value="FK2" style="shape=partialRectangle;overflow=hidden;connectable=0;fillColor=#fff2cc;top=0;left=0;bottom=0;right=0;strokeColor=#d6b656;" parent="FQMhkjAlK0ivQc2ch7R_-148" vertex="1">
          <mxGeometry width="30" height="30" as="geometry" />
        </mxCell>
        <mxCell id="FQMhkjAlK0ivQc2ch7R_-150" value="id_patient" style="shape=partialRectangle;overflow=hidden;connectable=0;fillColor=#fff2cc;top=0;left=0;bottom=0;right=0;align=left;spacingLeft=6;strokeColor=#d6b656;" parent="FQMhkjAlK0ivQc2ch7R_-148" vertex="1">
          <mxGeometry x="30" width="220" height="30" as="geometry" />
        </mxCell>
        <mxCell id="FQMhkjAlK0ivQc2ch7R_-151" value="diagnosis" style="shape=partialRectangle;overflow=hidden;connectable=0;fillColor=none;top=0;left=0;bottom=0;right=0;align=left;spacingLeft=6;" parent="1" vertex="1">
          <mxGeometry x="550" y="366" width="220" height="27" as="geometry" />
        </mxCell>
        <mxCell id="FQMhkjAlK0ivQc2ch7R_-152" value="Patient Evolution" style="shape=table;startSize=30;container=1;collapsible=1;childLayout=tableLayout;fixedRows=1;rowLines=0;fontStyle=1;align=center;resizeLast=1;fillColor=#d5e8d4;strokeColor=#82b366;" parent="1" vertex="1">
          <mxGeometry x="298" y="483" width="250" height="150" as="geometry" />
        </mxCell>
        <mxCell id="FQMhkjAlK0ivQc2ch7R_-153" value="" style="shape=partialRectangle;collapsible=0;dropTarget=0;pointerEvents=0;fillColor=none;points=[[0,0.5],[1,0.5]];portConstraint=eastwest;top=0;left=0;right=0;bottom=1;" parent="FQMhkjAlK0ivQc2ch7R_-152" vertex="1">
          <mxGeometry y="30" width="250" height="30" as="geometry" />
        </mxCell>
        <mxCell id="FQMhkjAlK0ivQc2ch7R_-154" value="PK" style="shape=partialRectangle;overflow=hidden;connectable=0;fillColor=#dae8fc;top=0;left=0;bottom=0;right=0;fontStyle=1;strokeColor=#6c8ebf;" parent="FQMhkjAlK0ivQc2ch7R_-153" vertex="1">
          <mxGeometry width="30" height="30" as="geometry" />
        </mxCell>
        <mxCell id="FQMhkjAlK0ivQc2ch7R_-155" value="id_evolution" style="shape=partialRectangle;overflow=hidden;connectable=0;fillColor=#dae8fc;top=0;left=0;bottom=0;right=0;align=left;spacingLeft=6;fontStyle=5;strokeColor=#6c8ebf;" parent="FQMhkjAlK0ivQc2ch7R_-153" vertex="1">
          <mxGeometry x="30" width="220" height="30" as="geometry" />
        </mxCell>
        <mxCell id="FQMhkjAlK0ivQc2ch7R_-156" value="" style="shape=partialRectangle;collapsible=0;dropTarget=0;pointerEvents=0;fillColor=none;points=[[0,0.5],[1,0.5]];portConstraint=eastwest;top=0;left=0;right=0;bottom=0;" parent="FQMhkjAlK0ivQc2ch7R_-152" vertex="1">
          <mxGeometry y="60" width="250" height="30" as="geometry" />
        </mxCell>
        <mxCell id="FQMhkjAlK0ivQc2ch7R_-157" value="FK1" style="shape=partialRectangle;overflow=hidden;connectable=0;fillColor=#f5f5f5;top=0;left=0;bottom=0;right=0;strokeColor=#666666;fontColor=#333333;" parent="FQMhkjAlK0ivQc2ch7R_-156" vertex="1">
          <mxGeometry width="30" height="30" as="geometry" />
        </mxCell>
        <mxCell id="FQMhkjAlK0ivQc2ch7R_-158" value="id_patient" style="shape=partialRectangle;overflow=hidden;connectable=0;fillColor=#f5f5f5;top=0;left=0;bottom=0;right=0;align=left;spacingLeft=6;strokeColor=#666666;fontColor=#333333;" parent="FQMhkjAlK0ivQc2ch7R_-156" vertex="1">
          <mxGeometry x="30" width="220" height="30" as="geometry" />
        </mxCell>
        <mxCell id="FQMhkjAlK0ivQc2ch7R_-159" value="" style="shape=partialRectangle;collapsible=0;dropTarget=0;pointerEvents=0;fillColor=none;points=[[0,0.5],[1,0.5]];portConstraint=eastwest;top=0;left=0;right=0;bottom=0;" parent="FQMhkjAlK0ivQc2ch7R_-152" vertex="1">
          <mxGeometry y="90" width="250" height="30" as="geometry" />
        </mxCell>
        <mxCell id="FQMhkjAlK0ivQc2ch7R_-160" value="FK2" style="shape=partialRectangle;overflow=hidden;connectable=0;fillColor=#fff2cc;top=0;left=0;bottom=0;right=0;strokeColor=#d6b656;" parent="FQMhkjAlK0ivQc2ch7R_-159" vertex="1">
          <mxGeometry width="30" height="30" as="geometry" />
        </mxCell>
        <mxCell id="FQMhkjAlK0ivQc2ch7R_-161" value="diagnosis" style="shape=partialRectangle;overflow=hidden;connectable=0;fillColor=#fff2cc;top=0;left=0;bottom=0;right=0;align=left;spacingLeft=6;strokeColor=#d6b656;" parent="FQMhkjAlK0ivQc2ch7R_-159" vertex="1">
          <mxGeometry x="30" width="220" height="30" as="geometry" />
        </mxCell>
        <mxCell id="FQMhkjAlK0ivQc2ch7R_-162" value="" style="shape=partialRectangle;collapsible=0;dropTarget=0;pointerEvents=0;fillColor=none;points=[[0,0.5],[1,0.5]];portConstraint=eastwest;top=0;left=0;right=0;bottom=0;" parent="1" vertex="1">
          <mxGeometry x="298" y="603" width="250" height="30" as="geometry" />
        </mxCell>
        <mxCell id="FQMhkjAlK0ivQc2ch7R_-163" value="" style="shape=partialRectangle;overflow=hidden;connectable=0;fillColor=none;top=0;left=0;bottom=0;right=0;" parent="FQMhkjAlK0ivQc2ch7R_-162" vertex="1">
          <mxGeometry width="30" height="30" as="geometry" />
        </mxCell>
        <mxCell id="FQMhkjAlK0ivQc2ch7R_-164" value="date" style="shape=partialRectangle;overflow=hidden;connectable=0;fillColor=none;top=0;left=0;bottom=0;right=0;align=left;spacingLeft=6;" parent="FQMhkjAlK0ivQc2ch7R_-162" vertex="1">
          <mxGeometry x="30" width="220" height="30" as="geometry" />
        </mxCell>
        <mxCell id="FQMhkjAlK0ivQc2ch7R_-168" value="1 : n" style="text;html=1;align=center;verticalAlign=middle;resizable=0;points=[];autosize=1;strokeColor=none;" parent="1" vertex="1">
          <mxGeometry x="162" y="199" width="33" height="18" as="geometry" />
        </mxCell>
        <mxCell id="FQMhkjAlK0ivQc2ch7R_-170" style="edgeStyle=orthogonalEdgeStyle;rounded=0;orthogonalLoop=1;jettySize=auto;html=1;entryX=-0.012;entryY=0.733;entryDx=0;entryDy=0;entryPerimeter=0;startArrow=ERone;startFill=0;endArrow=ERmany;endFill=0;exitX=1;exitY=0.5;exitDx=0;exitDy=0;" parent="1" source="C-vyLk0tnHw3VtMMgP7b-3" target="FQMhkjAlK0ivQc2ch7R_-145" edge="1">
          <mxGeometry relative="1" as="geometry" />
        </mxCell>
        <mxCell id="FQMhkjAlK0ivQc2ch7R_-171" value="1 : n" style="text;html=1;align=center;verticalAlign=middle;resizable=0;points=[];autosize=1;strokeColor=none;" parent="1" vertex="1">
          <mxGeometry x="406.5" y="338" width="33" height="18" as="geometry" />
        </mxCell>
        <mxCell id="FQMhkjAlK0ivQc2ch7R_-173" value="1 : n" style="text;html=1;align=center;verticalAlign=middle;resizable=0;points=[];autosize=1;strokeColor=none;" parent="1" vertex="1">
          <mxGeometry x="579" y="537" width="33" height="18" as="geometry" />
        </mxCell>
        <mxCell id="FQMhkjAlK0ivQc2ch7R_-175" style="edgeStyle=orthogonalEdgeStyle;rounded=0;orthogonalLoop=1;jettySize=auto;html=1;entryX=0.5;entryY=0;entryDx=0;entryDy=0;startArrow=ERone;startFill=0;endArrow=ERmany;endFill=0;" parent="1" source="FQMhkjAlK0ivQc2ch7R_-156" target="FQMhkjAlK0ivQc2ch7R_-11" edge="1">
          <mxGeometry relative="1" as="geometry" />
        </mxCell>
        <mxCell id="FQMhkjAlK0ivQc2ch7R_-178" value="1 : n" style="text;html=1;align=center;verticalAlign=middle;resizable=0;points=[];autosize=1;strokeColor=none;" parent="1" vertex="1">
          <mxGeometry x="143.5" y="534" width="33" height="18" as="geometry" />
        </mxCell>
        <mxCell id="FQMhkjAlK0ivQc2ch7R_-180" style="edgeStyle=orthogonalEdgeStyle;rounded=0;orthogonalLoop=1;jettySize=auto;html=1;entryX=1;entryY=0.5;entryDx=0;entryDy=0;startArrow=ERone;startFill=0;endArrow=ERmany;endFill=0;" parent="1" source="FQMhkjAlK0ivQc2ch7R_-145" target="FQMhkjAlK0ivQc2ch7R_-48" edge="1">
          <mxGeometry relative="1" as="geometry" />
        </mxCell>
        <mxCell id="FQMhkjAlK0ivQc2ch7R_-181" value="1 : n" style="text;html=1;align=center;verticalAlign=middle;resizable=0;points=[];autosize=1;strokeColor=none;" parent="1" vertex="1">
          <mxGeometry x="812" y="528" width="33" height="18" as="geometry" />
        </mxCell>
        <mxCell id="E78Ck8Y9UJgd9hsz8yq5-1" value="Doctors Prescription" style="shape=table;startSize=30;container=1;collapsible=1;childLayout=tableLayout;fixedRows=1;rowLines=0;fontStyle=1;align=center;resizeLast=1;fillColor=#d5e8d4;strokeColor=#82b366;" parent="1" vertex="1">
          <mxGeometry x="294.5" y="902" width="250" height="130" as="geometry" />
        </mxCell>
        <mxCell id="E78Ck8Y9UJgd9hsz8yq5-2" value="" style="shape=partialRectangle;collapsible=0;dropTarget=0;pointerEvents=0;fillColor=none;points=[[0,0.5],[1,0.5]];portConstraint=eastwest;top=0;left=0;right=0;bottom=1;" parent="E78Ck8Y9UJgd9hsz8yq5-1" vertex="1">
          <mxGeometry y="30" width="250" height="30" as="geometry" />
        </mxCell>
        <mxCell id="E78Ck8Y9UJgd9hsz8yq5-3" value="PK" style="shape=partialRectangle;overflow=hidden;connectable=0;fillColor=#dae8fc;top=0;left=0;bottom=0;right=0;fontStyle=1;strokeColor=#6c8ebf;" parent="E78Ck8Y9UJgd9hsz8yq5-2" vertex="1">
          <mxGeometry width="30" height="30" as="geometry" />
        </mxCell>
        <mxCell id="E78Ck8Y9UJgd9hsz8yq5-4" value="id_prescription" style="shape=partialRectangle;overflow=hidden;connectable=0;fillColor=#dae8fc;top=0;left=0;bottom=0;right=0;align=left;spacingLeft=6;fontStyle=5;strokeColor=#6c8ebf;" parent="E78Ck8Y9UJgd9hsz8yq5-2" vertex="1">
          <mxGeometry x="30" width="220" height="30" as="geometry" />
        </mxCell>
        <mxCell id="E78Ck8Y9UJgd9hsz8yq5-5" value="" style="shape=partialRectangle;collapsible=0;dropTarget=0;pointerEvents=0;fillColor=none;points=[[0,0.5],[1,0.5]];portConstraint=eastwest;top=0;left=0;right=0;bottom=0;" parent="E78Ck8Y9UJgd9hsz8yq5-1" vertex="1">
          <mxGeometry y="60" width="250" height="30" as="geometry" />
        </mxCell>
        <mxCell id="E78Ck8Y9UJgd9hsz8yq5-6" value="FK1" style="shape=partialRectangle;overflow=hidden;connectable=0;fillColor=#f5f5f5;top=0;left=0;bottom=0;right=0;strokeColor=#666666;fontColor=#333333;" parent="E78Ck8Y9UJgd9hsz8yq5-5" vertex="1">
          <mxGeometry width="30" height="30" as="geometry" />
        </mxCell>
        <mxCell id="E78Ck8Y9UJgd9hsz8yq5-7" value="id_medicine" style="shape=partialRectangle;overflow=hidden;connectable=0;fillColor=#f5f5f5;top=0;left=0;bottom=0;right=0;align=left;spacingLeft=6;strokeColor=#666666;fontColor=#333333;" parent="E78Ck8Y9UJgd9hsz8yq5-5" vertex="1">
          <mxGeometry x="30" width="220" height="30" as="geometry" />
        </mxCell>
        <mxCell id="E78Ck8Y9UJgd9hsz8yq5-8" value="" style="shape=partialRectangle;collapsible=0;dropTarget=0;pointerEvents=0;fillColor=none;points=[[0,0.5],[1,0.5]];portConstraint=eastwest;top=0;left=0;right=0;bottom=0;" parent="E78Ck8Y9UJgd9hsz8yq5-1" vertex="1">
          <mxGeometry y="90" width="250" height="30" as="geometry" />
        </mxCell>
        <mxCell id="E78Ck8Y9UJgd9hsz8yq5-9" value="FK2" style="shape=partialRectangle;overflow=hidden;connectable=0;fillColor=#fff2cc;top=0;left=0;bottom=0;right=0;strokeColor=#d6b656;" parent="E78Ck8Y9UJgd9hsz8yq5-8" vertex="1">
          <mxGeometry width="30" height="30" as="geometry" />
        </mxCell>
        <mxCell id="E78Ck8Y9UJgd9hsz8yq5-10" value="id_signs" style="shape=partialRectangle;overflow=hidden;connectable=0;fillColor=#fff2cc;top=0;left=0;bottom=0;right=0;align=left;spacingLeft=6;strokeColor=#d6b656;" parent="E78Ck8Y9UJgd9hsz8yq5-8" vertex="1">
          <mxGeometry x="30" width="220" height="30" as="geometry" />
        </mxCell>
        <mxCell id="E78Ck8Y9UJgd9hsz8yq5-16" value="n : n" style="text;html=1;align=center;verticalAlign=middle;resizable=0;points=[];autosize=1;strokeColor=none;" parent="1" vertex="1">
          <mxGeometry x="603" y="958" width="33" height="18" as="geometry" />
        </mxCell>
        <mxCell id="E78Ck8Y9UJgd9hsz8yq5-18" value="1 : n" style="text;html=1;align=center;verticalAlign=middle;resizable=0;points=[];autosize=1;strokeColor=none;" parent="1" vertex="1">
          <mxGeometry x="195" y="982" width="33" height="18" as="geometry" />
        </mxCell>
        <mxCell id="E78Ck8Y9UJgd9hsz8yq5-22" value="1 : n" style="text;html=1;align=center;verticalAlign=middle;resizable=0;points=[];autosize=1;strokeColor=none;" parent="1" vertex="1">
          <mxGeometry x="411" y="180" width="40" height="20" as="geometry" />
        </mxCell>
        <mxCell id="E78Ck8Y9UJgd9hsz8yq5-25" style="edgeStyle=orthogonalEdgeStyle;rounded=0;orthogonalLoop=1;jettySize=auto;html=1;entryX=0.25;entryY=0;entryDx=0;entryDy=0;startArrow=ERone;startFill=0;endArrow=ERmany;endFill=0;" parent="1" source="C-vyLk0tnHw3VtMMgP7b-9" target="FQMhkjAlK0ivQc2ch7R_-11" edge="1">
          <mxGeometry relative="1" as="geometry" />
        </mxCell>
        <mxCell id="E78Ck8Y9UJgd9hsz8yq5-26" value="1 : n" style="text;html=1;align=center;verticalAlign=middle;resizable=0;points=[];autosize=1;strokeColor=none;" parent="1" vertex="1">
          <mxGeometry x="60" y="502" width="33" height="18" as="geometry" />
        </mxCell>
        <mxCell id="E78Ck8Y9UJgd9hsz8yq5-27" value="1 : n" style="text;html=1;align=center;verticalAlign=middle;resizable=0;points=[];autosize=1;strokeColor=none;" parent="1" vertex="1">
          <mxGeometry x="294.5" y="425" width="33" height="18" as="geometry" />
        </mxCell>
        <mxCell id="E78Ck8Y9UJgd9hsz8yq5-31" value="1 : n" style="text;html=1;align=center;verticalAlign=middle;resizable=0;points=[];autosize=1;strokeColor=none;" parent="1" vertex="1">
          <mxGeometry x="852" y="654" width="33" height="18" as="geometry" />
        </mxCell>
        <mxCell id="Sc72v8pu2UwiUSRfuRXP-1" value="-&amp;nbsp; Para um paciente deve ser possível fazer varios atendimentos: cada atendimento seta composto por evoluções, sinais vitais , medicamentos administrados durante toda o período que ficar internado ou sendo atendido. Logo deve a haver um relacionamento de muitos pra muitos nesse caso controlado por classes criados por vocês.&lt;br&gt;&lt;br&gt;- Em alguma ou algumas entidades devem ter pelo menos 1 anexo de arquivos e um anexo de imagens." style="text;html=1;strokeColor=none;fillColor=none;align=left;verticalAlign=middle;whiteSpace=wrap;rounded=0;" parent="1" vertex="1">
          <mxGeometry x="348" y="-198" width="329" height="179" as="geometry" />
        </mxCell>
        <mxCell id="sGMbjx1k_9ghgo7PnfZ6-1" style="edgeStyle=orthogonalEdgeStyle;rounded=0;orthogonalLoop=1;jettySize=auto;html=1;exitX=0.75;exitY=0;exitDx=0;exitDy=0;startArrow=ERmany;startFill=0;endArrow=ERone;endFill=0;" edge="1" parent="1" source="FQMhkjAlK0ivQc2ch7R_-11">
          <mxGeometry relative="1" as="geometry">
            <mxPoint x="697" y="416" as="targetPoint" />
            <Array as="points">
              <mxPoint x="223" y="652" />
              <mxPoint x="697" y="652" />
            </Array>
          </mxGeometry>
        </mxCell>
        <mxCell id="sGMbjx1k_9ghgo7PnfZ6-2" value="n : 1" style="text;html=1;align=center;verticalAlign=middle;resizable=0;points=[];autosize=1;strokeColor=none;" vertex="1" parent="1">
          <mxGeometry x="412" y="656" width="33" height="18" as="geometry" />
        </mxCell>
        <mxCell id="sGMbjx1k_9ghgo7PnfZ6-4" value="1 : n" style="text;html=1;align=center;verticalAlign=middle;resizable=0;points=[];autosize=1;strokeColor=none;" vertex="1" parent="1">
          <mxGeometry x="728" y="522" width="33" height="18" as="geometry" />
        </mxCell>
        <mxCell id="sGMbjx1k_9ghgo7PnfZ6-5" value="professional_picture" style="shape=partialRectangle;overflow=hidden;connectable=0;fillColor=none;top=0;left=0;bottom=0;right=0;align=left;spacingLeft=6;" vertex="1" parent="1">
          <mxGeometry x="107" y="146" width="220" height="30" as="geometry" />
        </mxCell>
        <mxCell id="sGMbjx1k_9ghgo7PnfZ6-6" value="patient_picture" style="shape=partialRectangle;overflow=hidden;connectable=0;fillColor=none;top=0;left=0;bottom=0;right=0;align=left;spacingLeft=6;" vertex="1" parent="1">
          <mxGeometry x="107" y="396" width="220" height="18" as="geometry" />
        </mxCell>
        <mxCell id="sGMbjx1k_9ghgo7PnfZ6-7" value="attachment" style="shape=partialRectangle;overflow=hidden;connectable=0;fillColor=none;top=0;left=0;bottom=0;right=0;align=left;spacingLeft=6;" vertex="1" parent="1">
          <mxGeometry x="550" y="390" width="220" height="27" as="geometry" />
        </mxCell>
        <mxCell id="sGMbjx1k_9ghgo7PnfZ6-8" value="prescription_attachment" style="shape=partialRectangle;overflow=hidden;connectable=0;fillColor=none;top=0;left=0;bottom=0;right=0;align=left;spacingLeft=6;" vertex="1" parent="1">
          <mxGeometry x="603" y="818" width="220" height="31" as="geometry" />
        </mxCell>
      </root>
    </mxGraphModel>
  </diagram>
</mxfile>
